<?xml version="1.0" encoding="utf-8"?>
<!-- Generator: Adobe Illustrator 22.0.0, SVG Export Plug-In . SVG Version: 6.00 Build 0)  -->
<svg version="1.1" id="Layer_1" xmlns="http://www.w3.org/2000/svg" xmlns:xlink="http://www.w3.org/1999/xlink" x="0px" y="0px"
	 viewBox="0 0 522.2 111.6" style="enable-background:new 0 0 522.2 111.6;" xml:space="preserve">
<style type="text/css">
	.st0{opacity:0.2;enable-background:new    ;}
	.st1{fill:#FCDF2B;}
	.st2{fill:#FFFFFF;}
</style>
<g>
	<g>
		<rect x="212.3" y="1.5" class="st0" width="308.4" height="108.6"/>
		<path class="st1" d="M516.2,6v99.6H216.8V6H516.2 M522.2,0H0v111.6h522.2V0L522.2,0z"/>
	</g>
	<g>
		<path d="M25.1,86.9V25.4h14.7v61.5H25.1z"/>
		<path d="M66.4,86.9l19-61.5h16.8l19,61.5H106l-3.5-13.8H84.6l-3.4,13.8H66.4z M86.9,62.8H100l-6.6-25.5L86.9,62.8z"/>
		<path d="M125.5,86.9V25.4h21l9.4,41l10.1-41h21.1v61.5h-14.2V38.2l-12.2,48.7h-10.6l-12.2-48.7v48.7H125.5z"/>
	</g>
	<g>
		<path class="st2" d="M241.9,86.9V25.4h10.2l29.6,54v-54h6.8v61.5h-10.2l-29.6-54v54H241.9z"/>
		<path class="st2" d="M304.9,86.9V25.4h7.3v61.5H304.9z"/>
		<path class="st2" d="M328.3,86.9V25.4h7.3v27.8l26.9-27.8h9l-29.1,28.9L374,87h-9.8l-28.8-30.7V87L328.3,86.9L328.3,86.9z"/>
		<path class="st2" d="M375.6,56.2c0-17,9.1-31.7,27.7-31.7c18.9,0,27.7,14.3,27.7,31.7c0,17.1-9.1,31.7-27.7,31.7
			c-4.7,0-8.9-0.8-12.4-2.5C380.6,80.5,375.6,69.5,375.6,56.2z M403.3,81.8c14.4,0,19.9-13.2,19.9-25.6s-5.5-25.6-19.9-25.6
			c-14.1,0-20,13.4-20,25.6c0,6.2,1.5,12.5,4.7,17.4C391.3,78.5,396.2,81.8,403.3,81.8z"/>
		<path class="st2" d="M444.2,86.9V25.4h10.2l29.6,54v-54h6.8v61.5h-10.2L451,33v54L444.2,86.9L444.2,86.9z"/>
	</g>
</g>
</svg>
