<?xml version="1.0" encoding="utf-8"?>
<!-- Generator: Adobe Illustrator 21.1.0, SVG Export Plug-In . SVG Version: 6.00 Build 0)  -->
<svg version="1.1" id="Layer_1" xmlns="http://www.w3.org/2000/svg" xmlns:xlink="http://www.w3.org/1999/xlink" x="0px" y="0px"
	 viewBox="0 0 27.9 1813.5" style="enable-background:new 0 0 27.9 1813.5;" xml:space="preserve">
<style type="text/css">
	.st0{fill:#FFFFFF;}
</style>
<g>
	
		<rect x="12.9" y="1071.2" transform="matrix(6.123234e-17 -1 1 6.123234e-17 -1071.1676 1098.8307)" class="st0" width="1.9" height="27.7"/>
	
		<rect x="6" y="1120.4" transform="matrix(6.123234e-17 -1 1 6.123234e-17 -1120.3778 1134.2094)" class="st0" width="1.9" height="13.8"/>
	
		<rect x="6" y="1109.8" transform="matrix(6.123234e-17 -1 1 6.123234e-17 -1109.8042 1123.6357)" class="st0" width="1.9" height="13.8"/>
	
		<rect x="6" y="1099.2" transform="matrix(6.123234e-17 -1 1 6.123234e-17 -1099.2306 1113.0621)" class="st0" width="1.9" height="13.8"/>
	
		<rect x="6" y="1088.7" transform="matrix(6.123234e-17 -1 1 6.123234e-17 -1088.657 1102.4885)" class="st0" width="1.9" height="13.8"/>
	
		<rect x="12.9" y="1124.1" transform="matrix(6.123234e-17 -1 1 6.123234e-17 -1124.0787 1151.7418)" class="st0" width="1.9" height="27.7"/>
	
		<rect x="6" y="1173.3" transform="matrix(6.123234e-17 -1 1 6.123234e-17 -1173.2888 1187.1204)" class="st0" width="1.9" height="13.8"/>
	
		<rect x="6" y="1162.7" transform="matrix(6.123234e-17 -1 1 6.123234e-17 -1162.7152 1176.5468)" class="st0" width="1.9" height="13.8"/>
	
		<rect x="6" y="1152.1" transform="matrix(6.123234e-17 -1 1 6.123234e-17 -1152.1417 1165.9731)" class="st0" width="1.9" height="13.8"/>
	
		<rect x="6" y="1141.6" transform="matrix(6.123234e-17 -1 1 6.123234e-17 -1141.5681 1155.3997)" class="st0" width="1.9" height="13.8"/>
	
		<rect x="12.9" y="1174.8" transform="matrix(6.123234e-17 -1 1 6.123234e-17 -1174.7943 1202.4574)" class="st0" width="1.9" height="27.7"/>
	
		<rect x="6" y="1224" transform="matrix(6.123234e-17 -1 1 6.123234e-17 -1224.0044 1237.8359)" class="st0" width="1.9" height="13.8"/>
	
		<rect x="6" y="1213.4" transform="matrix(6.123234e-17 -1 1 6.123234e-17 -1213.4309 1227.2623)" class="st0" width="1.9" height="13.8"/>
	
		<rect x="6" y="1202.9" transform="matrix(6.123234e-17 -1 1 6.123234e-17 -1202.8573 1216.6887)" class="st0" width="1.9" height="13.8"/>
	
		<rect x="6" y="1192.3" transform="matrix(6.123234e-17 -1 1 6.123234e-17 -1192.2837 1206.1152)" class="st0" width="1.9" height="13.8"/>
	
		<rect x="12.9" y="1227.7" transform="matrix(6.123234e-17 -1 1 6.123234e-17 -1227.7053 1255.3684)" class="st0" width="1.9" height="27.7"/>
	
		<rect x="6" y="1276.9" transform="matrix(6.123234e-17 -1 1 6.123234e-17 -1276.9155 1290.7471)" class="st0" width="1.9" height="13.8"/>
	
		<rect x="6" y="1266.3" transform="matrix(6.123234e-17 -1 1 6.123234e-17 -1266.3419 1280.1735)" class="st0" width="1.9" height="13.8"/>
	
		<rect x="6" y="1255.8" transform="matrix(6.123234e-17 -1 1 6.123234e-17 -1255.7683 1269.5999)" class="st0" width="1.9" height="13.8"/>
	
		<rect x="6" y="1245.2" transform="matrix(6.123234e-17 -1 1 6.123234e-17 -1245.1947 1259.0262)" class="st0" width="1.9" height="13.8"/>
	
		<rect x="12.9" y="1278.4" transform="matrix(6.123234e-17 -1 1 6.123234e-17 -1278.421 1306.084)" class="st0" width="1.9" height="27.7"/>
	
		<rect x="6" y="1327.6" transform="matrix(6.123234e-17 -1 1 6.123234e-17 -1327.6311 1341.4626)" class="st0" width="1.9" height="13.8"/>
	
		<rect x="6" y="1317.1" transform="matrix(6.123234e-17 -1 1 6.123234e-17 -1317.0575 1330.889)" class="st0" width="1.9" height="13.8"/>
	
		<rect x="6" y="1306.5" transform="matrix(6.123234e-17 -1 1 6.123234e-17 -1306.4839 1320.3154)" class="st0" width="1.9" height="13.8"/>
	
		<rect x="6" y="1295.9" transform="matrix(6.123234e-17 -1 1 6.123234e-17 -1295.9103 1309.7418)" class="st0" width="1.9" height="13.8"/>
	
		<rect x="12.9" y="1331.3" transform="matrix(6.123234e-17 -1 1 6.123234e-17 -1331.332 1358.9951)" class="st0" width="1.9" height="27.7"/>
	
		<rect x="6" y="1380.5" transform="matrix(6.123234e-17 -1 1 6.123234e-17 -1380.5421 1394.3737)" class="st0" width="1.9" height="13.8"/>
	
		<rect x="6" y="1370" transform="matrix(6.123234e-17 -1 1 6.123234e-17 -1369.9686 1383.8)" class="st0" width="1.9" height="13.8"/>
	
		<rect x="6" y="1359.4" transform="matrix(6.123234e-17 -1 1 6.123234e-17 -1359.395 1373.2266)" class="st0" width="1.9" height="13.8"/>
	
		<rect x="6" y="1348.8" transform="matrix(6.123234e-17 -1 1 6.123234e-17 -1348.8214 1362.653)" class="st0" width="1.9" height="13.8"/>
	
		<rect x="12.9" y="1382" transform="matrix(6.123234e-17 -1 1 6.123234e-17 -1382.0476 1409.7107)" class="st0" width="1.9" height="27.7"/>
	
		<rect x="6" y="1431.3" transform="matrix(6.123234e-17 -1 1 6.123234e-17 -1431.2577 1445.0892)" class="st0" width="1.9" height="13.8"/>
	
		<rect x="6" y="1420.7" transform="matrix(6.123234e-17 -1 1 6.123234e-17 -1420.6842 1434.5156)" class="st0" width="1.9" height="13.8"/>
	
		<rect x="6" y="1410.1" transform="matrix(6.123234e-17 -1 1 6.123234e-17 -1410.1106 1423.9421)" class="st0" width="1.9" height="13.8"/>
	
		<rect x="6" y="1399.5" transform="matrix(6.123234e-17 -1 1 6.123234e-17 -1399.537 1413.3685)" class="st0" width="1.9" height="13.8"/>
	
		<rect x="12.9" y="1435" transform="matrix(6.123234e-17 -1 1 6.123234e-17 -1434.9587 1462.6217)" class="st0" width="1.9" height="27.7"/>
	
		<rect x="6" y="1484.2" transform="matrix(6.123234e-17 -1 1 6.123234e-17 -1484.1688 1498.0004)" class="st0" width="1.9" height="13.8"/>
	
		<rect x="6" y="1473.6" transform="matrix(6.123234e-17 -1 1 6.123234e-17 -1473.5952 1487.4268)" class="st0" width="1.9" height="13.8"/>
	
		<rect x="6" y="1463" transform="matrix(6.123234e-17 -1 1 6.123234e-17 -1463.0216 1476.8531)" class="st0" width="1.9" height="13.8"/>
	
		<rect x="6" y="1452.4" transform="matrix(6.123234e-17 -1 1 6.123234e-17 -1452.448 1466.2795)" class="st0" width="1.9" height="13.8"/>
	
		<rect x="12.9" y="1487.9" transform="matrix(6.123234e-17 -1 1 6.123234e-17 -1487.8698 1515.5328)" class="st0" width="1.9" height="27.7"/>
	
		<rect x="6" y="1537.1" transform="matrix(6.123234e-17 -1 1 6.123234e-17 -1537.0798 1550.9114)" class="st0" width="1.9" height="13.8"/>
	
		<rect x="6" y="1526.5" transform="matrix(6.123234e-17 -1 1 6.123234e-17 -1526.5063 1540.3378)" class="st0" width="1.9" height="13.8"/>
	
		<rect x="6" y="1515.9" transform="matrix(6.123234e-17 -1 1 6.123234e-17 -1515.9327 1529.7643)" class="st0" width="1.9" height="13.8"/>
	
		<rect x="6" y="1505.4" transform="matrix(6.123234e-17 -1 1 6.123234e-17 -1505.3591 1519.1907)" class="st0" width="1.9" height="13.8"/>
	
		<rect x="12.9" y="1538.6" transform="matrix(6.123234e-17 -1 1 6.123234e-17 -1538.5853 1566.2484)" class="st0" width="1.9" height="27.7"/>
	
		<rect x="6" y="1587.8" transform="matrix(6.123234e-17 -1 1 6.123234e-17 -1587.7954 1601.627)" class="st0" width="1.9" height="13.8"/>
	
		<rect x="6" y="1577.2" transform="matrix(6.123234e-17 -1 1 6.123234e-17 -1577.2219 1591.0533)" class="st0" width="1.9" height="13.8"/>
	
		<rect x="6" y="1566.6" transform="matrix(6.123234e-17 -1 1 6.123234e-17 -1566.6483 1580.4799)" class="st0" width="1.9" height="13.8"/>
	
		<rect x="6" y="1556.1" transform="matrix(6.123234e-17 -1 1 6.123234e-17 -1556.0747 1569.9062)" class="st0" width="1.9" height="13.8"/>
	
		<rect x="12.9" y="1591.5" transform="matrix(6.123234e-17 -1 1 6.123234e-17 -1591.4965 1619.1594)" class="st0" width="1.9" height="27.7"/>
	
		<rect x="6" y="1640.7" transform="matrix(6.123234e-17 -1 1 6.123234e-17 -1640.7065 1654.5381)" class="st0" width="1.9" height="13.8"/>
	
		<rect x="6" y="1630.1" transform="matrix(6.123234e-17 -1 1 6.123234e-17 -1630.1329 1643.9645)" class="st0" width="1.9" height="13.8"/>
	
		<rect x="6" y="1619.6" transform="matrix(6.123234e-17 -1 1 6.123234e-17 -1619.5593 1633.3909)" class="st0" width="1.9" height="13.8"/>
	
		<rect x="6" y="1609" transform="matrix(6.123234e-17 -1 1 6.123234e-17 -1608.9857 1622.8173)" class="st0" width="1.9" height="13.8"/>
	
		<rect x="12.9" y="1642.2" transform="matrix(6.123234e-17 -1 1 6.123234e-17 -1642.212 1669.875)" class="st0" width="1.9" height="27.7"/>
	
		<rect x="6" y="1691.4" transform="matrix(6.123234e-17 -1 1 6.123234e-17 -1691.4221 1705.2537)" class="st0" width="1.9" height="13.8"/>
	
		<rect x="6" y="1680.8" transform="matrix(6.123234e-17 -1 1 6.123234e-17 -1680.8485 1694.6801)" class="st0" width="1.9" height="13.8"/>
	
		<rect x="6" y="1670.3" transform="matrix(6.123234e-17 -1 1 6.123234e-17 -1670.2749 1684.1064)" class="st0" width="1.9" height="13.8"/>
	
		<rect x="6" y="1659.7" transform="matrix(6.123234e-17 -1 1 6.123234e-17 -1659.7013 1673.5328)" class="st0" width="1.9" height="13.8"/>
	
		<rect x="12.9" y="1695.1" transform="matrix(6.123234e-17 -1 1 6.123234e-17 -1695.123 1722.7861)" class="st0" width="1.9" height="27.7"/>
	
		<rect x="6" y="1744.3" transform="matrix(6.123234e-17 -1 1 6.123234e-17 -1744.3331 1758.1647)" class="st0" width="1.9" height="13.8"/>
	
		<rect x="6" y="1733.8" transform="matrix(6.123234e-17 -1 1 6.123234e-17 -1733.7596 1747.5911)" class="st0" width="1.9" height="13.8"/>
	
		<rect x="6" y="1723.2" transform="matrix(6.123234e-17 -1 1 6.123234e-17 -1723.186 1737.0176)" class="st0" width="1.9" height="13.8"/>
	
		<rect x="6" y="1712.6" transform="matrix(6.123234e-17 -1 1 6.123234e-17 -1712.6124 1726.444)" class="st0" width="1.9" height="13.8"/>
	
		<rect x="12.9" y="1745.8" transform="matrix(6.123234e-17 -1 1 6.123234e-17 -1745.8386 1773.5017)" class="st0" width="1.9" height="27.7"/>
	
		<rect x="6" y="1795" transform="matrix(6.123234e-17 -1 1 6.123234e-17 -1795.0488 1808.8802)" class="st0" width="1.9" height="13.8"/>
	
		<rect x="6" y="1784.5" transform="matrix(6.123234e-17 -1 1 6.123234e-17 -1784.4752 1798.3068)" class="st0" width="1.9" height="13.8"/>
	
		<rect x="6" y="1773.9" transform="matrix(6.123234e-17 -1 1 6.123234e-17 -1773.9016 1787.7332)" class="st0" width="1.9" height="13.8"/>
	
		<rect x="6" y="1763.3" transform="matrix(6.123234e-17 -1 1 6.123234e-17 -1763.328 1777.1595)" class="st0" width="1.9" height="13.8"/>
	
		<rect x="12.9" y="1798.7" transform="matrix(6.123234e-17 -1 1 6.123234e-17 -1798.7498 1826.4127)" class="st0" width="1.9" height="27.7"/>
</g>
<g>
	
		<rect x="12.9" y="-12.9" transform="matrix(6.123234e-17 -1 1 6.123234e-17 12.8757 14.7873)" class="st0" width="1.9" height="27.7"/>
	
		<rect x="6" y="36.3" transform="matrix(6.123234e-17 -1 1 6.123234e-17 -36.3344 50.1659)" class="st0" width="1.9" height="13.8"/>
	
		<rect x="6" y="25.8" transform="matrix(6.123234e-17 -1 1 6.123234e-17 -25.7608 39.5923)" class="st0" width="1.9" height="13.8"/>
	
		<rect x="6" y="15.2" transform="matrix(6.123234e-17 -1 1 6.123234e-17 -15.1872 29.0187)" class="st0" width="1.9" height="13.8"/>
	<rect x="6" y="4.6" transform="matrix(6.123234e-17 -1 1 6.123234e-17 -4.6136 18.4451)" class="st0" width="1.9" height="13.8"/>
	
		<rect x="12.9" y="40" transform="matrix(6.123234e-17 -1 1 6.123234e-17 -40.0353 67.6984)" class="st0" width="1.9" height="27.7"/>
	
		<rect x="6" y="89.2" transform="matrix(6.123234e-17 -1 1 6.123234e-17 -89.2455 103.077)" class="st0" width="1.9" height="13.8"/>
	
		<rect x="6" y="78.7" transform="matrix(6.123234e-17 -1 1 6.123234e-17 -78.6719 92.5034)" class="st0" width="1.9" height="13.8"/>
	
		<rect x="6" y="68.1" transform="matrix(6.123234e-17 -1 1 6.123234e-17 -68.0983 81.9298)" class="st0" width="1.9" height="13.8"/>
	
		<rect x="6" y="57.5" transform="matrix(6.123234e-17 -1 1 6.123234e-17 -57.5247 71.3562)" class="st0" width="1.9" height="13.8"/>
	
		<rect x="12.9" y="90.8" transform="matrix(6.123234e-17 -1 1 6.123234e-17 -90.7509 118.414)" class="st0" width="1.9" height="27.7"/>
	
		<rect x="6" y="140" transform="matrix(6.123234e-17 -1 1 6.123234e-17 -139.961 153.7926)" class="st0" width="1.9" height="13.8"/>
	
		<rect x="6" y="129.4" transform="matrix(6.123234e-17 -1 1 6.123234e-17 -129.3875 143.219)" class="st0" width="1.9" height="13.8"/>
	
		<rect x="6" y="118.8" transform="matrix(6.123234e-17 -1 1 6.123234e-17 -118.8139 132.6454)" class="st0" width="1.9" height="13.8"/>
	
		<rect x="6" y="108.2" transform="matrix(6.123234e-17 -1 1 6.123234e-17 -108.2403 122.0718)" class="st0" width="1.9" height="13.8"/>
	
		<rect x="12.9" y="143.7" transform="matrix(6.123234e-17 -1 1 6.123234e-17 -143.662 171.325)" class="st0" width="1.9" height="27.7"/>
	
		<rect x="6" y="192.9" transform="matrix(6.123234e-17 -1 1 6.123234e-17 -192.8721 206.7036)" class="st0" width="1.9" height="13.8"/>
	
		<rect x="6" y="182.3" transform="matrix(6.123234e-17 -1 1 6.123234e-17 -182.2985 196.1301)" class="st0" width="1.9" height="13.8"/>
	
		<rect x="6" y="171.7" transform="matrix(6.123234e-17 -1 1 6.123234e-17 -171.7249 185.5565)" class="st0" width="1.9" height="13.8"/>
	
		<rect x="6" y="161.2" transform="matrix(6.123234e-17 -1 1 6.123234e-17 -161.1513 174.9829)" class="st0" width="1.9" height="13.8"/>
	
		<rect x="12.9" y="194.4" transform="matrix(6.123234e-17 -1 1 6.123234e-17 -194.3776 222.0406)" class="st0" width="1.9" height="27.7"/>
	
		<rect x="6" y="243.6" transform="matrix(6.123234e-17 -1 1 6.123234e-17 -243.5877 257.4192)" class="st0" width="1.9" height="13.8"/>
	
		<rect x="6" y="233" transform="matrix(6.123234e-17 -1 1 6.123234e-17 -233.0141 246.8456)" class="st0" width="1.9" height="13.8"/>
	
		<rect x="6" y="222.4" transform="matrix(6.123234e-17 -1 1 6.123234e-17 -222.4405 236.272)" class="st0" width="1.9" height="13.8"/>
	
		<rect x="6" y="211.9" transform="matrix(6.123234e-17 -1 1 6.123234e-17 -211.8669 225.6985)" class="st0" width="1.9" height="13.8"/>
	
		<rect x="12.9" y="247.3" transform="matrix(6.123234e-17 -1 1 6.123234e-17 -247.2886 274.9517)" class="st0" width="1.9" height="27.7"/>
	
		<rect x="6" y="296.5" transform="matrix(6.123234e-17 -1 1 6.123234e-17 -296.4988 310.3303)" class="st0" width="1.9" height="13.8"/>
	
		<rect x="6" y="285.9" transform="matrix(6.123234e-17 -1 1 6.123234e-17 -285.9252 299.7567)" class="st0" width="1.9" height="13.8"/>
	
		<rect x="6" y="275.4" transform="matrix(6.123234e-17 -1 1 6.123234e-17 -275.3516 289.1831)" class="st0" width="1.9" height="13.8"/>
	
		<rect x="6" y="264.8" transform="matrix(6.123234e-17 -1 1 6.123234e-17 -264.778 278.6095)" class="st0" width="1.9" height="13.8"/>
	
		<rect x="12.9" y="298" transform="matrix(6.123234e-17 -1 1 6.123234e-17 -298.0042 325.6673)" class="st0" width="1.9" height="27.7"/>
	
		<rect x="6" y="347.2" transform="matrix(6.123234e-17 -1 1 6.123234e-17 -347.2144 361.0459)" class="st0" width="1.9" height="13.8"/>
	
		<rect x="6" y="336.6" transform="matrix(6.123234e-17 -1 1 6.123234e-17 -336.6408 350.4723)" class="st0" width="1.9" height="13.8"/>
	
		<rect x="6" y="326.1" transform="matrix(6.123234e-17 -1 1 6.123234e-17 -326.0672 339.8987)" class="st0" width="1.9" height="13.8"/>
	
		<rect x="6" y="315.5" transform="matrix(6.123234e-17 -1 1 6.123234e-17 -315.4936 329.3251)" class="st0" width="1.9" height="13.8"/>
	
		<rect x="12.9" y="350.9" transform="matrix(6.123234e-17 -1 1 6.123234e-17 -350.9153 378.5783)" class="st0" width="1.9" height="27.7"/>
	
		<rect x="6" y="400.1" transform="matrix(6.123234e-17 -1 1 6.123234e-17 -400.1254 413.9569)" class="st0" width="1.9" height="13.8"/>
	
		<rect x="6" y="389.6" transform="matrix(6.123234e-17 -1 1 6.123234e-17 -389.5518 403.3834)" class="st0" width="1.9" height="13.8"/>
	
		<rect x="6" y="379" transform="matrix(6.123234e-17 -1 1 6.123234e-17 -378.9782 392.8098)" class="st0" width="1.9" height="13.8"/>
	
		<rect x="6" y="368.4" transform="matrix(6.123234e-17 -1 1 6.123234e-17 -368.4047 382.2362)" class="st0" width="1.9" height="13.8"/>
	
		<rect x="12.9" y="403.8" transform="matrix(6.123234e-17 -1 1 6.123234e-17 -403.8264 431.4894)" class="st0" width="1.9" height="27.7"/>
	
		<rect x="6" y="453" transform="matrix(6.123234e-17 -1 1 6.123234e-17 -453.0365 466.868)" class="st0" width="1.9" height="13.8"/>
	
		<rect x="6" y="442.5" transform="matrix(6.123234e-17 -1 1 6.123234e-17 -442.4629 456.2944)" class="st0" width="1.9" height="13.8"/>
	
		<rect x="6" y="431.9" transform="matrix(6.123234e-17 -1 1 6.123234e-17 -431.8893 445.7208)" class="st0" width="1.9" height="13.8"/>
	
		<rect x="6" y="421.3" transform="matrix(6.123234e-17 -1 1 6.123234e-17 -421.3157 435.1472)" class="st0" width="1.9" height="13.8"/>
	
		<rect x="12.9" y="454.5" transform="matrix(6.123234e-17 -1 1 6.123234e-17 -454.542 482.205)" class="st0" width="1.9" height="27.7"/>
	
		<rect x="6" y="503.8" transform="matrix(6.123234e-17 -1 1 6.123234e-17 -503.7521 517.5836)" class="st0" width="1.9" height="13.8"/>
	
		<rect x="6" y="493.2" transform="matrix(6.123234e-17 -1 1 6.123234e-17 -493.1785 507.01)" class="st0" width="1.9" height="13.8"/>
	
		<rect x="6" y="482.6" transform="matrix(6.123234e-17 -1 1 6.123234e-17 -482.6049 496.4364)" class="st0" width="1.9" height="13.8"/>
	
		<rect x="6" y="472" transform="matrix(6.123234e-17 -1 1 6.123234e-17 -472.0313 485.8628)" class="st0" width="1.9" height="13.8"/>
	
		<rect x="12.9" y="507.5" transform="matrix(6.123234e-17 -1 1 6.123234e-17 -507.453 535.1161)" class="st0" width="1.9" height="27.7"/>
	
		<rect x="6" y="556.7" transform="matrix(6.123234e-17 -1 1 6.123234e-17 -556.6631 570.4947)" class="st0" width="1.9" height="13.8"/>
	
		<rect x="6" y="546.1" transform="matrix(6.123234e-17 -1 1 6.123234e-17 -546.0895 559.9211)" class="st0" width="1.9" height="13.8"/>
	
		<rect x="6" y="535.5" transform="matrix(6.123234e-17 -1 1 6.123234e-17 -535.516 549.3475)" class="st0" width="1.9" height="13.8"/>
	
		<rect x="6" y="524.9" transform="matrix(6.123234e-17 -1 1 6.123234e-17 -524.9424 538.7739)" class="st0" width="1.9" height="13.8"/>
	
		<rect x="12.9" y="558.2" transform="matrix(6.123234e-17 -1 1 6.123234e-17 -558.1686 585.8317)" class="st0" width="1.9" height="27.7"/>
	
		<rect x="6" y="607.4" transform="matrix(6.123234e-17 -1 1 6.123234e-17 -607.3787 621.2103)" class="st0" width="1.9" height="13.8"/>
	
		<rect x="6" y="596.8" transform="matrix(6.123234e-17 -1 1 6.123234e-17 -596.8051 610.6367)" class="st0" width="1.9" height="13.8"/>
	
		<rect x="6" y="586.2" transform="matrix(6.123234e-17 -1 1 6.123234e-17 -586.2316 600.063)" class="st0" width="1.9" height="13.8"/>
	
		<rect x="6" y="575.7" transform="matrix(6.123234e-17 -1 1 6.123234e-17 -575.658 589.4895)" class="st0" width="1.9" height="13.8"/>
	
		<rect x="12.9" y="611.1" transform="matrix(6.123234e-17 -1 1 6.123234e-17 -611.0797 638.7427)" class="st0" width="1.9" height="27.7"/>
	
		<rect x="6" y="660.3" transform="matrix(6.123234e-17 -1 1 6.123234e-17 -660.2898 674.1213)" class="st0" width="1.9" height="13.8"/>
	
		<rect x="6" y="649.7" transform="matrix(6.123234e-17 -1 1 6.123234e-17 -649.7162 663.5477)" class="st0" width="1.9" height="13.8"/>
	
		<rect x="6" y="639.1" transform="matrix(6.123234e-17 -1 1 6.123234e-17 -639.1426 652.9741)" class="st0" width="1.9" height="13.8"/>
	
		<rect x="6" y="628.6" transform="matrix(6.123234e-17 -1 1 6.123234e-17 -628.569 642.4006)" class="st0" width="1.9" height="13.8"/>
	
		<rect x="12.9" y="661.8" transform="matrix(6.123234e-17 -1 1 6.123234e-17 -661.7953 689.4583)" class="st0" width="1.9" height="27.7"/>
	
		<rect x="6" y="711" transform="matrix(6.123234e-17 -1 1 6.123234e-17 -711.0054 724.8369)" class="st0" width="1.9" height="13.8"/>
	
		<rect x="6" y="700.4" transform="matrix(6.123234e-17 -1 1 6.123234e-17 -700.4318 714.2633)" class="st0" width="1.9" height="13.8"/>
	
		<rect x="6" y="689.9" transform="matrix(6.123234e-17 -1 1 6.123234e-17 -689.8582 703.6897)" class="st0" width="1.9" height="13.8"/>
	
		<rect x="6" y="679.3" transform="matrix(6.123234e-17 -1 1 6.123234e-17 -679.2846 693.1161)" class="st0" width="1.9" height="13.8"/>
	
		<rect x="12.9" y="714.7" transform="matrix(6.123234e-17 -1 1 6.123234e-17 -714.7063 742.3694)" class="st0" width="1.9" height="27.7"/>
</g>
<g>
	<path class="st0" d="M16,1047c0,2.6,2,4.7,4.7,4.7c2.6,0,4.7-2,4.7-4.7c0-1.3-0.6-2.7-1.7-3.8l1.7-1.6c1.5,1.4,2.4,3.5,2.4,5.5
		c0,4.1-3.1,7.3-7.2,7.3s-7.1-3.2-7.1-7.4c0-2,0.9-4,2.2-5.4l1.9,1.6C16.6,1044.2,16,1045.6,16,1047z"/>
	<path class="st0" d="M24.7,1027.7v6.8l2.9,1.2v2.8l-13.9-6.1v-2.8l13.9-6v2.9L24.7,1027.7z M22.4,1028.6l-5.8,2.4l5.8,2.5V1028.6z"
		/>
	<path class="st0" d="M18.5,1007.9c3.2,0,5,2,5,5.5v3h4.1v2.7H13.7v-5.7C13.7,1009.9,15.5,1007.9,18.5,1007.9z M18.6,1010.4
		c-1.7,0-2.5,1.1-2.5,3.1v2.9h5.1v-2.9C21.2,1011.6,20.4,1010.4,18.6,1010.4z"/>
	<path class="st0" d="M13.7,993.1h2.4v4.3h11.6v2.7H16.1v4.3h-2.4V993.1z"/>
	<path class="st0" d="M25.5,982.6c0-2.1-1.3-3.4-3.5-3.4h-8.2v-2.7h8.2c3.7,0,5.9,2.3,5.9,6c0,3.8-2.3,6.1-5.9,6.1h-8.2V986h8.2
		C24.1,986,25.5,984.7,25.5,982.6z"/>
	<path class="st0" d="M27.7,961.9l-4.1,2.4c0,0.2,0,0.3,0,0.5v3.1h4.1v2.7H13.7v-5.8c0-3.6,1.7-5.6,4.8-5.6c2.2,0,3.8,1,4.5,2.8
		l4.6-3.1V961.9z M21.2,968v-3.1c0-2-0.9-3.1-2.6-3.1c-1.7,0-2.5,1.1-2.5,3.1v3.1H21.2z"/>
	<path class="st0" d="M13.7,943.3h2.3v7.5h3.4V944h2.3v6.8h3.5V943h2.3v10.4H13.7V943.3z"/>
	<path class="st0" d="M13.7,919h2.4v4.3h11.6v2.7H16.1v4.3h-2.4V919z"/>
	<path class="st0" d="M13.7,911.7h5.9v-6.9h-5.9V902h13.9v2.7H22v6.9h5.6v2.7H13.7V911.7z"/>
	<path class="st0" d="M13.7,885.6h2.3v7.5h3.4v-6.8h2.3v6.8h3.5v-7.8h2.3v10.4H13.7V885.6z"/>
	<path class="st0" d="M27.8,868.6c0,1.7-0.8,3.2-2.1,4.3l-2-1.3c1-0.9,1.6-2,1.6-3c0-1.2-0.7-1.8-2-1.8h-7.1v4.8h-2.4v-7.5h9.5
		C26.2,864.2,27.8,865.9,27.8,868.6z"/>
	<path class="st0" d="M20.7,844.5c4,0,7.2,3.2,7.2,7.4c0,4.2-3.1,7.4-7.2,7.4c-4.1,0-7.1-3.2-7.1-7.4
		C13.6,847.7,16.6,844.5,20.7,844.5z M20.7,856.6c2.7,0,4.8-2.2,4.8-4.7c0-2.5-2.1-4.7-4.8-4.7c-2.7,0-4.7,2.1-4.7,4.7
		C16,854.5,18,856.6,20.7,856.6z"/>
	<path class="st0" d="M25.5,833.5c0-2.1-1.3-3.4-3.5-3.4h-8.2v-2.7h8.2c3.7,0,5.9,2.3,5.9,6c0,3.8-2.3,6.1-5.9,6.1h-8.2V837h8.2
		C24.1,837,25.5,835.6,25.5,833.5z"/>
	<path class="st0" d="M27.7,812.9l-4.1,2.4c0,0.2,0,0.3,0,0.5v3.1h4.1v2.7H13.7v-5.8c0-3.6,1.7-5.6,4.8-5.6c2.2,0,3.8,1,4.5,2.8
		l4.6-3.1V812.9z M21.2,818.9v-3.1c0-2-0.9-3.1-2.6-3.1c-1.7,0-2.5,1.1-2.5,3.1v3.1H21.2z"/>
	<path class="st0" d="M13.7,792.1h13.9v2.5l-9.6,7.2h9.6v2.6H13.7v-2.5l9.6-7.2h-9.6V792.1z"/>
	<path class="st0" d="M13.7,775.7h2.3v7.5h3.4v-6.8h2.3v6.8h3.5v-7.8h2.3v10.4H13.7V775.7z"/>
	<path class="st0" d="M23.1,763.9h4.6v2.7h-4.5l-9.5,5.2V769l6.5-3.8l-6.5-3.7v-2.7L23.1,763.9z"/>
</g>
</svg>
