<?xml version="1.0" encoding="utf-8"?>
<!-- Generator: Adobe Illustrator 21.1.0, SVG Export Plug-In . SVG Version: 6.00 Build 0)  -->
<svg version="1.1" id="Layer_1" xmlns="http://www.w3.org/2000/svg" xmlns:xlink="http://www.w3.org/1999/xlink" x="0px" y="0px"
	 viewBox="0 0 27.9 1813.5" style="enable-background:new 0 0 27.9 1813.5;" xml:space="preserve">
<g>
	<rect x="0" y="1084" width="27.7" height="1.9"/>
	<rect x="0" y="1126.3" width="13.8" height="1.9"/>
	<rect x="0" y="1115.7" width="13.8" height="1.9"/>
	<rect x="0" y="1105.2" width="13.8" height="1.9"/>
	<rect x="0" y="1094.6" width="13.8" height="1.9"/>
	<rect x="0" y="1136.9" width="27.7" height="1.9"/>
	<rect x="0" y="1179.2" width="13.8" height="1.9"/>
	<rect x="0" y="1168.6" width="13.8" height="1.9"/>
	<rect x="0" y="1158.1" width="13.8" height="1.9"/>
	<rect x="0" y="1147.5" width="13.8" height="1.9"/>
	<rect x="0" y="1187.7" width="27.7" height="1.9"/>
	<rect x="0" y="1229.9" width="13.8" height="1.9"/>
	<rect x="0" y="1219.4" width="13.8" height="1.9"/>
	<rect x="0" y="1208.8" width="13.8" height="1.9"/>
	<rect x="0" y="1198.2" width="13.8" height="1.9"/>
	<rect x="0" y="1240.6" width="27.7" height="1.9"/>
	<rect x="0" y="1282.8" width="13.8" height="1.9"/>
	<rect x="0" y="1272.3" width="13.8" height="1.9"/>
	<rect x="0" y="1261.7" width="13.8" height="1.9"/>
	<rect x="0" y="1251.1" width="13.8" height="1.9"/>
	<rect x="0" y="1291.3" width="27.7" height="1.9"/>
	<rect x="0" y="1333.6" width="13.8" height="1.9"/>
	<rect x="0" y="1323" width="13.8" height="1.9"/>
	<rect x="0" y="1312.4" width="13.8" height="1.9"/>
	<rect x="0" y="1301.8" width="13.8" height="1.9"/>
	<rect x="0" y="1344.2" width="27.7" height="1.9"/>
	<rect x="0" y="1386.5" width="13.8" height="1.9"/>
	<rect x="0" y="1375.9" width="13.8" height="1.9"/>
	<rect x="0" y="1365.3" width="13.8" height="1.9"/>
	<rect x="0" y="1354.8" width="13.8" height="1.9"/>
	<rect x="0" y="1394.9" width="27.7" height="1.9"/>
	<rect x="0" y="1437.2" width="13.8" height="1.9"/>
	<rect x="0" y="1426.6" width="13.8" height="1.9"/>
	<rect x="0" y="1416" width="13.8" height="1.9"/>
	<rect x="0" y="1405.5" width="13.8" height="1.9"/>
	<rect x="0" y="1447.8" width="27.7" height="1.9"/>
	<rect x="0" y="1490.1" width="13.8" height="1.9"/>
	<rect x="0" y="1479.5" width="13.8" height="1.9"/>
	<rect x="0" y="1469" width="13.8" height="1.9"/>
	<rect x="0" y="1458.4" width="13.8" height="1.9"/>
	<rect x="0" y="1500.7" width="27.7" height="1.9"/>
	<rect x="0" y="1543" width="13.8" height="1.9"/>
	<rect x="0" y="1532.4" width="13.8" height="1.9"/>
	<rect x="0" y="1521.9" width="13.8" height="1.9"/>
	<rect x="0" y="1511.3" width="13.8" height="1.9"/>
	<rect x="0" y="1551.4" width="27.7" height="1.9"/>
	<rect x="0" y="1593.7" width="13.8" height="1.9"/>
	<rect x="0" y="1583.2" width="13.8" height="1.9"/>
	<rect x="0" y="1572.6" width="13.8" height="1.9"/>
	<rect x="0" y="1562" width="13.8" height="1.9"/>
	<rect x="0" y="1604.4" width="27.7" height="1.9"/>
	<rect x="0" y="1646.6" width="13.8" height="1.9"/>
	<rect x="0" y="1636.1" width="13.8" height="1.9"/>
	<rect x="0" y="1625.5" width="13.8" height="1.9"/>
	<rect x="0" y="1614.9" width="13.8" height="1.9"/>
	<rect x="0" y="1655.1" width="27.7" height="1.9"/>
	<rect x="0" y="1697.4" width="13.8" height="1.9"/>
	<rect x="0" y="1686.8" width="13.8" height="1.9"/>
	<rect x="0" y="1676.2" width="13.8" height="1.9"/>
	<rect x="0" y="1665.6" width="13.8" height="1.9"/>
	<rect x="0" y="1708" width="27.7" height="1.9"/>
	<rect x="0" y="1750.3" width="13.8" height="1.9"/>
	<rect x="0" y="1739.7" width="13.8" height="1.9"/>
	<rect x="0" y="1729.1" width="13.8" height="1.9"/>
	<rect x="0" y="1718.5" width="13.8" height="1.9"/>
	<rect x="0" y="1758.7" width="27.7" height="1.9"/>
	<rect x="0" y="1801" width="13.8" height="1.9"/>
	<rect x="0" y="1790.4" width="13.8" height="1.9"/>
	<rect x="0" y="1779.8" width="13.8" height="1.9"/>
	<rect x="0" y="1769.3" width="13.8" height="1.9"/>
	<rect x="0" y="1811.6" width="27.7" height="1.9"/>
</g>
<g>
	<rect x="0" y="0" width="27.7" height="1.9"/>
	<rect x="0" y="42.3" width="13.8" height="1.9"/>
	<rect x="0" y="31.7" width="13.8" height="1.9"/>
	<rect x="0" y="21.1" width="13.8" height="1.9"/>
	<rect x="0" y="10.5" width="13.8" height="1.9"/>
	<rect x="0" y="52.9" width="27.7" height="1.9"/>
	<rect x="0" y="95.2" width="13.8" height="1.9"/>
	<rect x="0" y="84.6" width="13.8" height="1.9"/>
	<rect x="0" y="74" width="13.8" height="1.9"/>
	<rect x="0" y="63.5" width="13.8" height="1.9"/>
	<rect x="0" y="103.6" width="27.7" height="1.9"/>
	<rect x="0" y="145.9" width="13.8" height="1.9"/>
	<rect x="0" y="135.3" width="13.8" height="1.9"/>
	<rect x="0" y="124.7" width="13.8" height="1.9"/>
	<rect x="0" y="114.2" width="13.8" height="1.9"/>
	<rect x="0" y="156.5" width="27.7" height="1.9"/>
	<rect x="0" y="198.8" width="13.8" height="1.9"/>
	<rect x="0" y="188.2" width="13.8" height="1.9"/>
	<rect x="0" y="177.7" width="13.8" height="1.9"/>
	<rect x="0" y="167.1" width="13.8" height="1.9"/>
	<rect x="0" y="207.2" width="27.7" height="1.9"/>
	<rect x="0" y="249.5" width="13.8" height="1.9"/>
	<rect x="0" y="238.9" width="13.8" height="1.9"/>
	<rect x="0" y="228.4" width="13.8" height="1.9"/>
	<rect x="0" y="217.8" width="13.8" height="1.9"/>
	<rect x="0" y="260.2" width="27.7" height="1.9"/>
	<rect x="0" y="302.4" width="13.8" height="1.9"/>
	<rect x="0" y="291.9" width="13.8" height="1.9"/>
	<rect x="0" y="281.3" width="13.8" height="1.9"/>
	<rect x="0" y="270.7" width="13.8" height="1.9"/>
	<rect x="0" y="310.9" width="27.7" height="1.9"/>
	<rect x="0" y="353.1" width="13.8" height="1.9"/>
	<rect x="0" y="342.6" width="13.8" height="1.9"/>
	<rect x="0" y="332" width="13.8" height="1.9"/>
	<rect x="0" y="321.4" width="13.8" height="1.9"/>
	<rect x="0" y="363.8" width="27.7" height="1.9"/>
	<rect x="0" y="406.1" width="13.8" height="1.9"/>
	<rect x="0" y="395.5" width="13.8" height="1.9"/>
	<rect x="0" y="384.9" width="13.8" height="1.9"/>
	<rect x="0" y="374.3" width="13.8" height="1.9"/>
	<rect x="0" y="416.7" width="27.7" height="1.9"/>
	<rect x="0" y="459" width="13.8" height="1.9"/>
	<rect x="0" y="448.4" width="13.8" height="1.9"/>
	<rect x="0" y="437.8" width="13.8" height="1.9"/>
	<rect x="0" y="427.2" width="13.8" height="1.9"/>
	<rect x="0" y="467.4" width="27.7" height="1.9"/>
	<rect x="0" y="509.7" width="13.8" height="1.9"/>
	<rect x="0" y="499.1" width="13.8" height="1.9"/>
	<rect x="0" y="488.5" width="13.8" height="1.9"/>
	<rect x="0" y="478" width="13.8" height="1.9"/>
	<rect x="0" y="520.3" width="27.7" height="1.9"/>
	<rect x="0" y="562.6" width="13.8" height="1.9"/>
	<rect x="0" y="552" width="13.8" height="1.9"/>
	<rect x="0" y="541.4" width="13.8" height="1.9"/>
	<rect x="0" y="530.9" width="13.8" height="1.9"/>
	<rect x="0" y="571" width="27.7" height="1.9"/>
	<rect x="0" y="613.3" width="13.8" height="1.9"/>
	<rect x="0" y="602.7" width="13.8" height="1.9"/>
	<rect x="0" y="592.2" width="13.8" height="1.9"/>
	<rect x="0" y="581.6" width="13.8" height="1.9"/>
	<rect x="0" y="623.9" width="27.7" height="1.9"/>
	<rect x="0" y="666.2" width="13.8" height="1.9"/>
	<rect x="0" y="655.6" width="13.8" height="1.9"/>
	<rect x="0" y="645.1" width="13.8" height="1.9"/>
	<rect x="0" y="634.5" width="13.8" height="1.9"/>
	<rect x="0" y="674.7" width="27.7" height="1.9"/>
	<rect x="0" y="716.9" width="13.8" height="1.9"/>
	<rect x="0" y="706.4" width="13.8" height="1.9"/>
	<rect x="0" y="695.8" width="13.8" height="1.9"/>
	<rect x="0" y="685.2" width="13.8" height="1.9"/>
	<rect x="0" y="727.6" width="27.7" height="1.9"/>
</g>
<g>
	<path d="M16,1047c0,2.6,2,4.7,4.7,4.7c2.6,0,4.7-2,4.7-4.7c0-1.3-0.6-2.7-1.7-3.8l1.7-1.6c1.5,1.4,2.4,3.5,2.4,5.5
		c0,4.1-3.1,7.3-7.2,7.3s-7.1-3.2-7.1-7.4c0-2,0.9-4,2.2-5.4l1.9,1.6C16.6,1044.2,16,1045.6,16,1047z"/>
	<path d="M24.7,1027.7v6.8l2.9,1.2v2.8l-13.9-6.1v-2.8l13.9-6v2.9L24.7,1027.7z M22.4,1028.6l-5.8,2.4l5.8,2.5
		C22.4,1033.5,22.4,1028.6,22.4,1028.6z"/>
	<path d="M18.5,1007.9c3.2,0,5,2,5,5.5v3h4.1v2.7H13.7v-5.7C13.7,1009.9,15.5,1007.9,18.5,1007.9z M18.6,1010.4
		c-1.7,0-2.5,1.1-2.5,3.1v2.9h5.1v-2.9C21.2,1011.6,20.4,1010.4,18.6,1010.4z"/>
	<path d="M13.7,993.1h2.4v4.3h11.6v2.7H16.1v4.3h-2.4C13.7,1004.4,13.7,993.1,13.7,993.1z"/>
	<path d="M25.5,982.6c0-2.1-1.3-3.4-3.5-3.4h-8.2v-2.7H22c3.7,0,5.9,2.3,5.9,6c0,3.8-2.3,6.1-5.9,6.1h-8.2V986H22
		C24.1,986,25.5,984.7,25.5,982.6z"/>
	<path d="M27.7,961.9l-4.1,2.4c0,0.2,0,0.3,0,0.5v3.1h4.1v2.7h-14v-5.8c0-3.6,1.7-5.6,4.8-5.6c2.2,0,3.8,1,4.5,2.8l4.6-3.1v3H27.7z
		 M21.2,968v-3.1c0-2-0.9-3.1-2.6-3.1s-2.5,1.1-2.5,3.1v3.1H21.2z"/>
	<path d="M13.7,943.3H16v7.5h3.4V944h2.3v6.8h3.5V943h2.3v10.4H13.7V943.3z"/>
	<path d="M13.7,919h2.4v4.3h11.6v2.7H16.1v4.3h-2.4C13.7,930.3,13.7,919,13.7,919z"/>
	<path d="M13.7,911.7h5.9v-6.9h-5.9V902h13.9v2.7H22v6.9h5.6v2.7H13.7V911.7z"/>
	<path d="M13.7,885.6H16v7.5h3.4v-6.8h2.3v6.8h3.5v-7.8h2.3v10.4H13.7V885.6z"/>
	<path d="M27.8,868.6c0,1.7-0.8,3.2-2.1,4.3l-2-1.3c1-0.9,1.6-2,1.6-3c0-1.2-0.7-1.8-2-1.8h-7.1v4.8h-2.4v-7.5h9.5
		C26.2,864.2,27.8,865.9,27.8,868.6z"/>
	<path d="M20.7,844.5c4,0,7.2,3.2,7.2,7.4s-3.1,7.4-7.2,7.4s-7.1-3.2-7.1-7.4S16.6,844.5,20.7,844.5z M20.7,856.6
		c2.7,0,4.8-2.2,4.8-4.7s-2.1-4.7-4.8-4.7s-4.7,2.1-4.7,4.7S18,856.6,20.7,856.6z"/>
	<path d="M25.5,833.5c0-2.1-1.3-3.4-3.5-3.4h-8.2v-2.7H22c3.7,0,5.9,2.3,5.9,6c0,3.8-2.3,6.1-5.9,6.1h-8.2V837H22
		C24.1,837,25.5,835.6,25.5,833.5z"/>
	<path d="M27.7,812.9l-4.1,2.4c0,0.2,0,0.3,0,0.5v3.1h4.1v2.7h-14v-5.8c0-3.6,1.7-5.6,4.8-5.6c2.2,0,3.8,1,4.5,2.8l4.6-3.1v3H27.7z
		 M21.2,818.9v-3.1c0-2-0.9-3.1-2.6-3.1s-2.5,1.1-2.5,3.1v3.1H21.2z"/>
	<path d="M13.7,792.1h13.9v2.5l-9.6,7.2h9.6v2.6H13.7v-2.5l9.6-7.2h-9.6C13.7,794.7,13.7,792.1,13.7,792.1z"/>
	<path d="M13.7,775.7H16v7.5h3.4v-6.8h2.3v6.8h3.5v-7.8h2.3v10.4H13.7V775.7z"/>
	<path d="M23.1,763.9h4.6v2.7h-4.5l-9.5,5.2V769l6.5-3.8l-6.5-3.7v-2.7L23.1,763.9z"/>
</g>
</svg>
