<?xml version="1.0" encoding="utf-8"?>
<!-- Generator: Adobe Illustrator 22.0.0, SVG Export Plug-In . SVG Version: 6.00 Build 0)  -->
<svg version="1.1" id="Layer_1" xmlns="http://www.w3.org/2000/svg" xmlns:xlink="http://www.w3.org/1999/xlink" x="0px" y="0px"
	 viewBox="0 0 623.6 84.4" style="enable-background:new 0 0 623.6 84.4;" xml:space="preserve">
<style type="text/css">
	.st0{fill:#010101;}
</style>
<g>
	<g>
		<g>
			<path class="st0" d="M0,5.2h18.2l37.6,57.3V5.2h13.7v77.2H52.1L13.7,23.2v59.2H0V5.2z"/>
			<path class="st0" d="M90.1,4.5c4.8,0,8.5,3.4,8.5,7.8c0,4.5-3.7,7.8-8.5,7.8c-4.8,0-8.3-3.7-8.3-7.8C81.8,8.2,85.3,4.5,90.1,4.5z
				 M83.6,30.1h13.1v52.3H83.6V30.1z"/>
			<path class="st0" d="M109.5,0h13.1v51.8l20.2-21.7h16.8l-22.5,23.8L161,82.4h-17.3l-21-26.7v26.7h-13.1V0z"/>
			<path class="st0" d="M191.4,28.8c15.8,0,28.5,11,28.5,27.5c0,16.5-12.6,27.5-28.5,27.5c-15.8,0-28.5-11-28.5-27.5
				C162.9,39.8,175.6,28.8,191.4,28.8z M191.4,71.9c9.6,0,15.4-7.5,15.4-15.7c0-8.2-5.8-15.7-15.4-15.7c-9.6,0-15.4,7.5-15.4,15.7
				C176,64.4,181.8,71.9,191.4,71.9z"/>
			<path class="st0" d="M229.1,30.1h12.4v8.4c0,0,3.9-9.7,16.2-9.7c14.1,0,19.1,9.9,19.1,20.6v33h-13.1V55.9
				c0-5.8-0.4-15.4-9.6-15.4c-8.6,0-12,6.3-12,13.3v28.6h-13.1V30.1z"/>
			<path class="st0" d="M349.3,21.8c-2.9-4.1-8.2-6.1-13.5-6.1c-6.3,0-12.6,2.8-12.6,9.9c0,15.5,36.6,6.7,36.6,34.1
				c0,16.6-13.1,24.6-28.2,24.6c-9.6,0-19-2.9-25.3-10.5l10.4-10c3.4,5.1,9.2,8.1,15.3,8.1c6.3,0,13.5-3.5,13.5-10.6
				c0-16.9-36.6-7.2-36.6-34.8c0-15.9,14.2-23.3,28.5-23.3c8.1,0,16.1,2.3,22.1,8L349.3,21.8z"/>
			<path class="st0" d="M405.8,45.8c-3.1-3.2-6.4-5.2-9.9-5.2c-9.6,0-15.4,7.5-15.4,15.7c0,8.2,5.8,15.7,15.4,15.7
				c4,0,7.7-1.7,10.1-4.9l8.7,9.4c-5.3,5.3-14.3,7.3-18.9,7.3c-15.8,0-28.5-11-28.5-27.5c0-16.5,12.6-27.5,28.5-27.5
				c6.6,0,14,2.4,19,8L405.8,45.8z"/>
			<path class="st0" d="M436.3,37.4h0.2c2.1-4.4,7.3-8.6,15.4-8.6c14.1,0,19.1,9.9,19.1,20.6v33h-13.1V55.9c0-5.8-0.4-15.4-9.6-15.4
				c-8.6,0-12,6.3-12,13.3v28.6h-13.1V0h13.1V37.4z"/>
			<path class="st0" d="M507.9,28.8c15.8,0,28.5,11,28.5,27.5c0,16.5-12.6,27.5-28.5,27.5c-15.8,0-28.5-11-28.5-27.5
				C479.4,39.8,492.1,28.8,507.9,28.8z M507.9,71.9c9.6,0,15.4-7.5,15.4-15.7c0-8.2-5.8-15.7-15.4-15.7c-9.6,0-15.4,7.5-15.4,15.7
				C492.5,64.4,498.3,71.9,507.9,71.9z"/>
			<path class="st0" d="M572.8,28.8c15.8,0,28.5,11,28.5,27.5c0,16.5-12.6,27.5-28.5,27.5c-15.8,0-28.5-11-28.5-27.5
				C544.4,39.8,557,28.8,572.8,28.8z M572.8,71.9c9.6,0,15.4-7.5,15.4-15.7c0-8.2-5.8-15.7-15.4-15.7c-9.6,0-15.4,7.5-15.4,15.7
				C557.5,64.4,563.2,71.9,572.8,71.9z"/>
			<path class="st0" d="M610.5,0h13.1v82.4h-13.1V0z"/>
		</g>
	</g>
</g>
</svg>
