<?xml version="1.0" encoding="utf-8"?>
<!-- Generator: Adobe Illustrator 22.0.0, SVG Export Plug-In . SVG Version: 6.00 Build 0)  -->
<svg version="1.1" id="Layer_1" xmlns="http://www.w3.org/2000/svg" xmlns:xlink="http://www.w3.org/1999/xlink" x="0px" y="0px"
	 viewBox="0 0 1115.1 105.3" style="enable-background:new 0 0 1115.1 105.3;" xml:space="preserve">
<style type="text/css">
	.st0{opacity:0.2;enable-background:new    ;}
	.st1{fill:#FFED00;}
	.st2{fill:#FFFFFF;}
</style>
<rect x="216.5" y="3.6" class="st0" width="895" height="98.2"/>
<g>
	<rect x="1.8" y="1.8" class="st1" width="214.7" height="101.8"/>
</g>
<g>
	<path class="st1" d="M1115.1,105.3H0V0h1115.1V105.3z M3.6,101.8h1107.9V3.6H3.6V101.8z"/>
</g>
<g>
	<g>
		<g>
			<path d="M23.1,86.2V20.7h15.6v65.5H23.1z"/>
		</g>
		<g>
			<path d="M65.1,86.2l20.2-65.5h17.9l20.2,65.5h-16.2l-3.7-14.7h-19l-3.6,14.7H65.1z M86.9,60.5h13.9l-7.1-27.1L86.9,60.5z"/>
		</g>
		<g>
			<path d="M129.3,86.2V20.7h22.4l10,43.6l10.7-43.6h22.5v65.5h-15.1V34.3l-13,51.8h-11.3l-13-51.8v51.8H129.3z"/>
		</g>
	</g>
	<g>
		<g>
			<path class="st2" d="M295.2,84.9c-4.2,1.5-9.6,2.4-14.3,2.4c-20.8,0-34.1-13.6-34.1-33.8c0-19.2,14-33.8,34-33.8
				c4.6,0,10,0.8,14.2,2.7l-0.6,5.8c-4.2-2.1-9.2-2.9-13.8-2.9c-17,0-27.6,12.3-27.6,28.3c0,16.5,10.5,28.3,28.1,28.3
				c5,0,9.1-0.7,13.7-2.6L295.2,84.9z"/>
		</g>
		<g>
			<path class="st2" d="M306.4,86.2V20.7h5.9v29.1h33.6V20.7h5.9v65.5h-5.9V55h-33.6v31.1H306.4z"/>
		</g>
		<g>
			<path class="st2" d="M361.6,86.2L388,20.7h6.4l26.5,65.5h-6.1L407.8,68h-33.3l-7.3,18.2H361.6z M376.5,62.8h29.2l-14.5-36.6
				L376.5,62.8z"/>
		</g>
		<g>
			<path class="st2" d="M430.1,78.3c4.3,2.7,9.3,3.4,13.3,3.4c8.5,0,14.8-3.9,14.8-13c0-6.2-4.8-9.8-11.1-13.4l-5.9-3.3
				c-6.1-3.4-10.5-7.6-10.5-15.1c0-11.8,10-17.3,20.2-17.3c3.9,0,7.7,0.6,11.5,2.1l-0.6,5.9c-3.4-1.7-7.3-2.5-11.1-2.5
				c-7.3,0-13.9,3.2-13.9,11.5c0,5.4,3.3,8.2,8.8,11.3l5.9,3.3c6.9,3.9,12.9,8.6,12.9,17.6c0,11.7-9.5,18.4-21.3,18.4
				c-5,0-9.3-0.8-13.9-2.8L430.1,78.3z"/>
		</g>
		<g>
			<path class="st2" d="M476.8,86.2V20.7h5.9v65.5H476.8z"/>
		</g>
		<g>
			<path class="st2" d="M499.4,86.2V20.7h8.1L541,79.2V20.7h5.7v65.5h-8.1l-33.6-58.5v58.5H499.4z"/>
		</g>
		<g>
			<path class="st2" d="M613.2,83.3c-6.6,2.7-12.1,3.9-19.1,3.9c-20.4,0-34.1-13.6-34.1-33.8c0-19.5,14.6-33.8,35.1-33.8
				c5.2,0,12.9,1.1,17.6,3.4l-0.6,5.8c-5.1-2.8-11.5-3.7-17.3-3.7c-17.4,0-28.6,12.2-28.6,28.3c0,16.8,10.7,28.3,28,28.3
				c5.1,0,8.8-0.6,13.2-2.2V55.9h-16v-5.2h21.9V83.3z"/>
		</g>
		<g>
			<path class="st2" d="M658.1,86.2V20.7h9.2l24,58.8l23.9-58.8h9.2v65.5h-5.9v-60l-24.4,60h-6l-24.4-60v60H658.1z"/>
		</g>
		<g>
			<path class="st2" d="M738,53.5c0-17.6,9.3-33.8,28.7-33.8c19.9,0,28.7,15.7,28.7,33.8c0,17.7-9.3,33.8-28.7,33.8
				c-5,0-9.3-0.9-13-2.7C742.9,79.1,738,67.2,738,53.5z M766.7,81.8c15.9,0,22.5-14.3,22.5-28.3s-6.6-28.3-22.5-28.3
				c-15.7,0-22.5,14.5-22.5,28.3c0,7,1.8,13.9,5.4,19.3C753.2,78,758.8,81.8,766.7,81.8z"/>
		</g>
		<g>
			<path class="st2" d="M809,86.2V20.7h9.2l24,58.8l23.9-58.8h9.2v65.5h-5.9v-60l-24.4,60h-6l-24.4-60v60H809z"/>
		</g>
		<g>
			<path class="st2" d="M892.2,86.2V20.7h31.3V26h-25.4v24h24.1V55h-24.1v25.8h26.5v5.3H892.2z"/>
		</g>
		<g>
			<path class="st2" d="M936.3,86.2V20.7h8.1l33.6,58.5V20.7h5.7v65.5h-8.1L942,27.6v58.5H936.3z"/>
		</g>
		<g>
			<path class="st2" d="M1012.8,86.2V26h-19.1v-5.3h44.3V26h-19.2v60.2H1012.8z"/>
		</g>
		<g>
			<path class="st2" d="M1044.9,78.3c4.3,2.7,9.3,3.4,13.3,3.4c8.5,0,14.8-3.9,14.8-13c0-6.2-4.8-9.8-11.1-13.4l-5.9-3.3
				c-6.1-3.4-10.5-7.6-10.5-15.1c0-11.8,10-17.3,20.2-17.3c3.9,0,7.7,0.6,11.5,2.1l-0.6,5.9c-3.4-1.7-7.3-2.5-11.1-2.5
				c-7.3,0-13.9,3.2-13.9,11.5c0,5.4,3.3,8.2,8.8,11.3l5.9,3.3c6.9,3.9,12.9,8.6,12.9,17.6c0,11.7-9.5,18.4-21.3,18.4
				c-5,0-9.3-0.8-13.9-2.8L1044.9,78.3z"/>
		</g>
	</g>
</g>
</svg>
