<?xml version="1.0" encoding="utf-8"?>
<!-- Generator: Adobe Illustrator 22.0.0, SVG Export Plug-In . SVG Version: 6.00 Build 0)  -->
<svg version="1.1" id="Layer_1" xmlns="http://www.w3.org/2000/svg" xmlns:xlink="http://www.w3.org/1999/xlink" x="0px" y="0px"
	 viewBox="0 0 45.9 41.1" style="enable-background:new 0 0 45.9 41.1;" xml:space="preserve">
<style type="text/css">
	.st0{fill:#FFFFFF;}
</style>
<g>
	<path class="st0" d="M22.9,32.8c-5.9,0-10.7-4.8-10.7-10.7c0-5.9,4.8-10.7,10.7-10.7c5.9,0,10.7,4.8,10.7,10.7
		C33.6,28,28.8,32.8,22.9,32.8z M22.9,16.4c-3.1,0-5.7,2.6-5.7,5.7s2.6,5.7,5.7,5.7c3.1,0,5.7-2.6,5.7-5.7S26.1,16.4,22.9,16.4z"/>
</g>
<g>
	<path class="st0" d="M45.9,41.1H0V7.2h7.3L11.5,0h22.9l4.2,7.2h7.3V41.1z M5,36.1h35.9V12.2h-5.1L31.5,5H14.4l-4.2,7.2H5V36.1z"/>
</g>
</svg>
