<?xml version="1.0" encoding="utf-8"?>
<!-- Generator: Adobe Illustrator 21.1.0, SVG Export Plug-In . SVG Version: 6.00 Build 0)  -->
<svg version="1.1" id="Layer_1" xmlns="http://www.w3.org/2000/svg" xmlns:xlink="http://www.w3.org/1999/xlink" x="0px" y="0px"
	 viewBox="0 0 54.5 77.7" style="enable-background:new 0 0 54.5 77.7;" xml:space="preserve">
<style type="text/css">
	.st0{fill:#FFFFFF;}
</style>
<g>
	<g>
		<path class="st0" d="M27.2,42c-8.1,0-14.7-6.6-14.7-14.7c0-8.1,6.6-14.7,14.7-14.7c8.1,0,14.7,6.6,14.7,14.7
			C41.9,35.5,35.3,42,27.2,42z M27.2,16.7c-5.9,0-10.7,4.8-10.7,10.7c0,5.9,4.8,10.7,10.7,10.7c5.9,0,10.7-4.8,10.7-10.7
			C37.9,21.5,33.1,16.7,27.2,16.7z"/>
	</g>
	<g>
		<path class="st0" d="M27.2,77.7l-1.5-1.8C25,75,7.7,54.5,1.1,35C0.4,33,0,29.9,0,27.2C0,12.2,12.2,0,27.2,0s27.2,12.2,27.2,27.2
			c0,2.7-0.4,5.7-1.1,7.7c-6.6,19.6-23.9,40-24.6,40.9L27.2,77.7z M27.2,4C14.4,4,4,14.4,4,27.2c0,2.2,0.4,4.8,0.9,6.5
			c5.2,15.5,17.9,32.2,22.3,37.7c4.4-5.5,17.1-22.2,22.3-37.7c0.5-1.6,0.9-4.2,0.9-6.5C50.5,14.4,40.1,4,27.2,4z"/>
	</g>
</g>
</svg>
