<?xml version="1.0" encoding="utf-8"?>
<!-- Generator: Adobe Illustrator 21.1.0, SVG Export Plug-In . SVG Version: 6.00 Build 0)  -->
<svg version="1.1" id="Layer_1" xmlns="http://www.w3.org/2000/svg" xmlns:xlink="http://www.w3.org/1999/xlink" x="0px" y="0px"
	 viewBox="0 0 76.1 76.1" style="enable-background:new 0 0 76.1 76.1;" xml:space="preserve">
<style type="text/css">
	.st0{fill:#FFFFFF;}
</style>
<g>
	<g>
		<g>
			<polygon class="st0" points="4,26 0,26 0,0 26,0 26,4 4,4 			"/>
		</g>
		<g>
			<rect x="9.5" y="-1.9" transform="matrix(0.7071 -0.7071 0.7071 0.7071 -4.7498 11.4677)" class="st0" width="4" height="26.8"/>
		</g>
	</g>
	<g>
		<g>
			<polygon class="st0" points="76.1,76.1 50.1,76.1 50.1,72.1 72.1,72.1 72.1,50.1 76.1,50.1 			"/>
		</g>
		<g>
			
				<rect x="62.7" y="51.3" transform="matrix(0.7071 -0.7071 0.7071 0.7071 -26.7918 64.6788)" class="st0" width="4" height="26.8"/>
		</g>
	</g>
	<g>
		<g>
			<polygon class="st0" points="76.1,26 72.1,26 72.1,4 50.1,4 50.1,0 76.1,0 			"/>
		</g>
		<g>
			<rect x="51.3" y="9.5" transform="matrix(0.7071 -0.7071 0.7071 0.7071 10.8361 49.0952)" class="st0" width="26.8" height="4"/>
		</g>
	</g>
	<g>
		<g>
			<polygon class="st0" points="26,76.1 0,76.1 0,50.1 4,50.1 4,72.1 26,72.1 			"/>
		</g>
		<g>
			
				<rect x="-1.9" y="62.7" transform="matrix(0.7071 -0.7071 0.7071 0.7071 -42.3777 27.0534)" class="st0" width="26.8" height="4"/>
		</g>
	</g>
</g>
</svg>
