<?xml version="1.0" encoding="utf-8"?>
<!-- Generator: Adobe Illustrator 22.0.1, SVG Export Plug-In . SVG Version: 6.00 Build 0)  -->
<svg version="1.1" id="Layer_1" xmlns="http://www.w3.org/2000/svg" xmlns:xlink="http://www.w3.org/1999/xlink" x="0px" y="0px"
	 viewBox="0 0 36.6 45.9" style="enable-background:new 0 0 36.6 45.9;" xml:space="preserve">
<style type="text/css">
	.st0{fill:#FFFFFF;}
</style>
<path class="st0" d="M30,32.7c-1.5,0-2.9,0.5-4.1,1.4l-13-8.9c0.2-0.7,0.4-1.4,0.4-2.1c0-0.7-0.1-1.5-0.4-2.1l13-8.9
	c1.1,0.9,2.5,1.4,4.1,1.4c3.7,0,6.6-3,6.6-6.6S33.6,0,30,0s-6.6,3-6.6,6.6c0,0.7,0.1,1.3,0.3,2l-13.1,9c-1.1-0.8-2.4-1.3-3.9-1.3
	C3,16.3,0,19.3,0,23s3,6.6,6.6,6.6c1.5,0,2.8-0.5,3.9-1.3l13.1,9c-0.2,0.6-0.3,1.3-0.3,2c0,3.7,3,6.6,6.6,6.6s6.6-3,6.6-6.6
	S33.6,32.7,30,32.7z"/>
</svg>
