<?xml version="1.0" encoding="utf-8"?>
<!-- Generator: Adobe Illustrator 22.0.1, SVG Export Plug-In . SVG Version: 6.00 Build 0)  -->
<svg version="1.1" id="Layer_1" xmlns="http://www.w3.org/2000/svg" xmlns:xlink="http://www.w3.org/1999/xlink" x="0px" y="0px"
	 viewBox="0 0 73.3 73.3" style="enable-background:new 0 0 73.3 73.3;" xml:space="preserve">
<style type="text/css">
	.st0{fill:#FFFFFF;}
</style>
<g>
	<path class="st0" d="M36.6,73.3C16.4,73.3,0,56.9,0,36.6C0,16.4,16.4,0,36.6,0c20.2,0,36.6,16.4,36.6,36.6
		C73.3,56.9,56.9,73.3,36.6,73.3z M36.6,4C18.6,4,4,18.6,4,36.6s14.6,32.6,32.6,32.6s32.6-14.6,32.6-32.6S54.7,4,36.6,4z"/>
</g>
<g id="f">
	<path class="st0" d="M38.2,53V38.1h5l0.7-5.8h-5.7v-3.7c0-1.7,0.5-2.8,2.9-2.8l3.1,0v-5.2c-0.5-0.1-2.4-0.2-4.5-0.2
		c-4.4,0-7.5,2.7-7.5,7.7v4.3h-5v5.8h5V53H38.2z"/>
</g>
</svg>
