<?xml version="1.0" encoding="utf-8"?>
<!-- Generator: Adobe Illustrator 22.0.1, SVG Export Plug-In . SVG Version: 6.00 Build 0)  -->
<svg version="1.1" id="Layer_1" xmlns="http://www.w3.org/2000/svg" xmlns:xlink="http://www.w3.org/1999/xlink" x="0px" y="0px"
	 viewBox="0 0 73.3 73.3" style="enable-background:new 0 0 73.3 73.3;" xml:space="preserve">
<style type="text/css">
	.st0{fill:#FFFFFF;}
</style>
<g>
	<path class="st0" d="M36.6,73.3C16.4,73.3,0,56.9,0,36.6C0,16.4,16.4,0,36.6,0c20.2,0,36.6,16.4,36.6,36.6
		C73.3,56.9,56.9,73.3,36.6,73.3z M36.6,4C18.6,4,4,18.6,4,36.6s14.6,32.6,32.6,32.6s32.6-14.6,32.6-32.6S54.7,4,36.6,4z"/>
</g>
<path class="st0" d="M55.3,25.1c-1.3,0.6-2.8,1-4.3,1.2c1.5-0.9,2.7-2.4,3.3-4.1c-1.4,0.9-3,1.5-4.7,1.8c-1.4-1.4-3.3-2.3-5.4-2.3
	c-4.1,0-7.4,3.3-7.4,7.4c0,0.6,0.1,1.1,0.2,1.7c-6.2-0.3-11.6-3.3-15.3-7.8c-0.6,1.1-1,2.4-1,3.7c0,2.6,1.3,4.8,3.3,6.2
	c-1.2,0-2.4-0.4-3.4-0.9c0,0,0,0.1,0,0.1c0,3.6,2.6,6.6,6,7.3c-0.6,0.2-1.3,0.3-2,0.3c-0.5,0-0.9,0-1.4-0.1c0.9,2.9,3.7,5.1,6.9,5.2
	c-2.5,2-5.7,3.2-9.2,3.2c-0.6,0-1.2,0-1.8-0.1c3.3,2.1,7.2,3.3,11.4,3.3c13.7,0,21.1-11.3,21.1-21.1c0-0.3,0-0.6,0-1
	C53.1,27.9,54.3,26.6,55.3,25.1"/>
</svg>
